/* XPM */
static char *result[] = {
/* columns rows colors chars-per-pixel */
"64 64 5 1 ",
"  c #313131",
". c #3C3C3C",
"X c gray67",
"o c #CECECE",
"O c #DDDDDD",
/* pixels */
"..........................................          ............",
"..........................................          ............",
"............    ................................................",
"............    ................................................",
"....OOOOOOOOOOOOOOOOOOOOOOOOOOOOOOOOOOOOOOOOOOOOOOOOOOOOOOOO....",
"....OOOOOOOOOOOOOOOOOOOOOOOOOOOOOOOOOOOOOOOOOOOOOOOOOOOOOOOO....",
"....OOOOOOOOOOOOOOOOOOOOOOOOOOOOOOOOOOOOOOOOOOOOOOOOOOOOOOOO....",
"....OOOOOOOOOOOOOOOOOOOOOOOOOOOOOOOOOOOOOOOOOOOOOOOOOOOOOOOO....",
"....OOOOXXXXXXXXXXXXXXXXXXXXXXXXXXXXXXXXXXXXXXXXXXXXXXXXOOOO    ",
"....OOOOXXXXXXXXXXXXXXXXXXXXXXXXXXXXXXXXXXXXXXXXXXXXXXXXOOOO    ",
"....OOOOXXXXXXOOOOOOOOOOOOOOOOXXXXOOOOOOOOOOOOOOOOXXXXXXOOOO....",
"....OOOOXXXXXXOOOOOOOOOOOOOOOOXXXXOOOOOOOOOOOOOOOOXXXXXXOOOO....",
"....OOOOXXXXXXXXOOOOOOooooooOOXXXXOOooooooOOOOOOXXXXXXXXOOOO....",
"....OOOOXXXXXXXXOOOOOOooooooOOXXXXOOooooooOOOOOOXXXXXXXXOOOO....",
"....OOOOXXOOXXXXXXOOOOOOOOooOOXXXXOOooOOOOOOOOXXXXXXOOXXOOOO....",
"....OOOOXXOOXXXXXXOOOOOOOOooOOXXXXOOooOOOOOOOOXXXXXXOOXXOOOO....",
"  ..OOOOXXOOOOXXXXXXOOOOOOooOOXXXXOOooOOOOOOXXXXXXOOOOXXOOOO....",
"  ..OOOOXXOOOOXXXXXXOOOOOOooOOXXXXOOooOOOOOOXXXXXXOOOOXXOOOO....",
"....OOOOXXOOOOOOXXXXXXOOOOOOOOXXXXOOOOOOOOXXXXXXOOOOOOXXOOOO....",
"....OOOOXXOOOOOOXXXXXXOOOOOOOOXXXXOOOOOOOOXXXXXXOOOOOOXXOOOO....",
"....OOOOXXOOOOOOOOXXXXXXOOOOOOXXXXOOOOOOXXXXXXOOOOOOOOXXOOOO....",
"....OOOOXXOOOOOOOOXXXXXXOOOOOOXXXXOOOOOOXXXXXXOOOOOOOOXXOOOO....",
"....OOOOXXOOooOOOOOOXXXXXXOOOOXXXXOOOOXXXXXXOOOOOOooOOXXOOOO....",
"....OOOOXXOOooOOOOOOXXXXXXOOOOXXXXOOOOXXXXXXOOOOOOooOOXXOOOO....",
"....OOOOXXOOooOOOOOOOOXXXXXXOOXXXXOOXXXXXXOOOOOOOOooOOXXOOOO....",
"....OOOOXXOOooOOOOOOOOXXXXXXOOXXXXOOXXXXXXOOOOOOOOooOOXXOOOO....",
"....OOOOXXOOooooooOOOOOOXXXXXXXXXXXXXXXXOOOOOOooooooOOXXOOOO....",
"....OOOOXXOOooooooOOOOOOXXXXXXXXXXXXXXXXOOOOOOooooooOOXXOOOO....",
"....OOOOXXOOOOOOOOOOOOOOOOXXXXXXXXXXXXOOOOOOOOOOOOOOOOXXOOOO..  ",
"....OOOOXXOOOOOOOOOOOOOOOOXXXXXXXXXXXXOOOOOOOOOOOOOOOOXXOOOO..  ",
"....OOOOXXXXXXXXXXXXXXXXXXXXXXXXXXXXXXXXXXXXXXXXXXXXXXXXOOOO....",
"....OOOOXXXXXXXXXXXXXXXXXXXXXXXXXXXXXXXXXXXXXXXXXXXXXXXXOOOO....",
"..  OOOOXXXXXXXXXXXXXXXXXXXXXXXXXXXXXXXXXXXXXXXXXXXXXXXXOOOO....",
"..  OOOOXXXXXXXXXXXXXXXXXXXXXXXXXXXXXXXXXXXXXXXXXXXXXXXXOOOO....",
"....OOOOXXOOOOOOOOOOOOOOOOXXXXXXXXXXXXOOOOOOOOOOOOOOOOXXOOOO....",
"....OOOOXXOOOOOOOOOOOOOOOOXXXXXXXXXXXXOOOOOOOOOOOOOOOOXXOOOO....",
"....OOOOXXOOooooooOOOOOOXXXXXXXXXXXXXXXXOOOOOOooooooOOXXOOOO....",
"....OOOOXXOOooooooOOOOOOXXXXXXXXXXXXXXXXOOOOOOooooooOOXXOOOO....",
"....OOOOXXOOooOOOOOOOOXXXXXXOOXXXXOOXXXXXXOOOOOOOOooOOXXOOOO....",
"....OOOOXXOOooOOOOOOOOXXXXXXOOXXXXOOXXXXXXOOOOOOOOooOOXXOOOO....",
"....OOOOXXOOooOOOOOOXXXXXXOOOOXXXXOOOOXXXXXXOOOOOOooOOXXOOOO  ..",
"....OOOOXXOOooOOOOOOXXXXXXOOOOXXXXOOOOXXXXXXOOOOOOooOOXXOOOO  ..",
"....OOOOXXOOOOOOOOXXXXXXOOOOOOXXXXOOOOOOXXXXXXOOOOOOOOXXOOOO....",
"....OOOOXXOOOOOOOOXXXXXXOOOOOOXXXXOOOOOOXXXXXXOOOOOOOOXXOOOO....",
"....OOOOXXOOOOOOXXXXXXOOOOOOOOXXXXOOOOOOOOXXXXXXOOOOOOXXOOOO....",
"....OOOOXXOOOOOOXXXXXXOOOOOOOOXXXXOOOOOOOOXXXXXXOOOOOOXXOOOO....",
"....OOOOXXOOOOXXXXXXOOOOOOooOOXXXXOOooOOOOOOXXXXXXOOOOXXOOOO....",
"....OOOOXXOOOOXXXXXXOOOOOOooOOXXXXOOooOOOOOOXXXXXXOOOOXXOOOO....",
"    OOOOXXOOXXXXXXOOOOOOOOooOOXXXXOOooOOOOOOOOXXXXXXOOXXOOOO....",
"    OOOOXXOOXXXXXXOOOOOOOOooOOXXXXOOooOOOOOOOOXXXXXXOOXXOOOO....",
"....OOOOXXXXXXXXOOOOOOooooooOOXXXXOOooooooOOOOOOXXXXXXXXOOOO....",
"....OOOOXXXXXXXXOOOOOOooooooOOXXXXOOooooooOOOOOOXXXXXXXXOOOO....",
"....OOOOXXXXXXOOOOOOOOOOOOOOOOXXXXOOOOOOOOOOOOOOOOXXXXXXOOOO....",
"....OOOOXXXXXXOOOOOOOOOOOOOOOOXXXXOOOOOOOOOOOOOOOOXXXXXXOOOO....",
"....OOOOXXXXXXXXXXXXXXXXXXXXXXXXXXXXXXXXXXXXXXXXXXXXXXXXOOOO....",
"....OOOOXXXXXXXXXXXXXXXXXXXXXXXXXXXXXXXXXXXXXXXXXXXXXXXXOOOO....",
"....OOOOOOOOOOOOOOOOOOOOOOOOOOOOOOOOOOOOOOOOOOOOOOOOOOOOOOOO....",
"....OOOOOOOOOOOOOOOOOOOOOOOOOOOOOOOOOOOOOOOOOOOOOOOOOOOOOOOO....",
"....OOOOOOOOOOOOOOOOOOOOOOOOOOOOOOOOOOOOOOOOOOOOOOOOOOOOOOOO    ",
"....OOOOOOOOOOOOOOOOOOOOOOOOOOOOOOOOOOOOOOOOOOOOOOOOOOOOOOOO    ",
"......          ................................................",
"......          ................................................",
"..................................        ......................",
"..................................        ......................"
};
