/* XPM */
static char *result[] = {
/* columns rows colors chars-per-pixel */
"64 64 19 1 ",
"  c black",
". c #313131",
"X c #3C3C3C",
"o c #3C3D44",
"O c #5E5F62",
"+ c #F50B0B",
"@ c #ED1F1F",
"# c #A95743",
"$ c #F54F4F",
"% c #F35656",
"& c #2C9A01",
"* c #929093",
"= c gray73",
"- c #F9DA8C",
"; c #FDF8AD",
": c gray86",
"> c #ECECEC",
", c #F2F4F2",
"< c white",
/* pixels */
"XXXXXXXXXXXXXXXXXXXXXXXXXXXXXXXXXXXXXXXXXXXXXXXXXXXXXXXXXXXXXXXX",
"XXXXXXXXXXXXXXXXXXXXXXXXXXXXXXXXXXXXXXXXXXXXXXXXXXXXXXXXXXXXXXXX",
"XXXXXXXXXXXXXXXXXXXXXXXXXXXXXX............XXXXXXXXXXXXXXXXXXXXXX",
"XXXXXXXXXXXXXXXXXXXXXXXXXXXXXX............XXXXXXXXXXXXXXXXXXXXXX",
"......XXXXXXXXXXXXXXXXXXXXXXXXXXXXXXXXXXXXXXXXXXXXXXXXXXXXXXXXXX",
"......XXXXXXXXXXXXXXXXXXXXXXXXXXXXXXXXXXXXXXXXXXXXXXXXXXXXXXXXXX",
"XXXXXXXXXXXXXXXXXXXXXXXXXXXXXXXXXXXXXXXXXXXXXXXX........XXXXXXXX",
"XXXXXXXXXXXXXXXXXXXXXXXXXXXXXXXXXXXXXXXXXXXXXXXX........XXXXXXXX",
"XXXXXXXXXXXXXXXXXXXXXXXXXXXX::::::::::XXXXXXXXXXXXXXXXXXXXXXXXXX",
"XXXXXXXXXXXXXXXXXXXXXXXXXXXX::::::::::XXXXXXXXXXXXXXXXXXXXXXXXXX",
"XXXXXXXXXXXXXXXXXXXXXXXX::::::<<<<<<::::::XXXXXXXXXXXXXXXXXXXXXX",
"XXXXXXXXXXXXXXXXXXXXXXXX::::::<<<<<<::::::XXXXXXXXXXXXXXXXXXXXXX",
"XXXXXXXXXXXXXXXXXXXXXX::>>>><<<<<<<<<<<<<<::XXXXXXXXXXXXXXXXXXXX",
"XXXXXXXXXXXXXXXXXXXXXX::>>>><<<<<<<<<<<<<<::XXXXXXXXXXXXXXXXXXXX",
"XXXXXXXXXXXXXXXXXXXX  <<>>>><<<<<<<<<<>><<<<  XXXXXXXXXX......XX",
"XXXXXXXXXXXXXXXXXXXX  <<>>>><<<<<<<<<<>><<<<  XXXXXXXXXX......XX",
"XXXXXXXXXXXXXXXXXX  <<<<>>>><<<<<<<<<<>><<<<<<  XXXXXXXXXXXXXXXX",
"XXXXXXXXXXXXXXXXXX  <<<<>>>><<<<<<<<<<>><<<<<<  XXXXXXXXXXXXXXXX",
"XXXXXX......XXXXXX  <<<<<<>>>><<<<<<>><<<<<<<<  XXXXXXXXXXXXXXXX",
"XXXXXX......XXXXXX  <<<<<<>>>><<<<<<>><<<<<<<<  XXXXXXXXXXXXXXXX",
"XXXXXXXXXXXXXXXX  >><<<<<<<<<<>>>><<<<>><<<<<<>>  XXXXXXXXXXXXXX",
"XXXXXXXXXXXXXXXX  >><<<<<<<<<<>>>><<<<>><<<<<<>>  XXXXXXXXXXXXXX",
"XXXXXXXXXXXXXXXX  >><<<<<<>>;;<<<<<<<<<<>><<<<>>  XXXXXXXXXXXXXX",
"XXXXXXXXXXXXXXXX  >><<<<<<>>;;<<<<<<<<<<>><<<<>>  XXXXXXXXXXXXXX",
"XXXXXXXXXXXXXXXX  >>++<<>>;;;;>><<<<<<<<>><<<<%%@@XXXXXXXXXXXXXX",
"XXXXXXXXXXXXXXXX  >>++<<>>;;;;>><<<<<<<<>><<<<%%@@XXXXXXXXXXXXXX",
"XXXXXXXXXXXXXX    ++>><<>>;;;;;;==<<<<<<<<==>><<  XXXXXXXXXXXXXX",
"XXXXXXXXXXXXXX    ++>><<>>;;;;;;==<<<<<<<<==>><<  XXXXXXXXXXXXXX",
"XXXXXXXXXXXX    ++++<<==;;==;;;;==<<>><<<<==<<%%@@XXXXXXXXXXXXXX",
"XXXXXXXXXXXX    ++++<<==;;==;;;;==<<>><<<<==<<%%@@XXXXXXXXXXXXXX",
"XXXXXXXXXXXX  ++++++<<==;;**&&;;;;==>><<<<==>><<  XX......XXXXXX",
"XXXXXXXXXXXX  ++++++<<==;;**&&;;;;==>><<<<==>><<  XX......XXXXXX",
"XXXXXXXXXXXX  $$++  <<==;;,,  ;;;;;;==<<====<<>>  XXXXXXXXXXXXXX",
"XXXXXXXXXXXX  $$++  <<==;;,,  ;;;;;;==<<====<<>>  XXXXXXXXXXXXXX",
"XXXXXXXXXXXXXX      <<>>==;;;;;;;;;;;;====>><<    XXXXXXXXXXXXXX",
"XXXXXXXXXXXXXX      <<>>==;;;;;;;;;;;;====>><<    XXXXXXXXXXXXXX",
"XXXXXXXXXXXXXXXXXX==  <<==--;;;;--;;;;--  <<  ==XXXXXXXXXXXXXXXX",
"XXXXXXXXXXXXXXXXXX==  <<==--;;;;--;;;;--  <<  ==XXXXXXXXXXXXXXXX",
"....XXXXXXXXXXXXXX==>>  OO  ##------##  OOOO>>==XXXXXXXXXXXXXXXX",
"....XXXXXXXXXXXXXX==>>  OO  ##------##  OOOO>>==XXXXXXXXXXXXXXXX",
"XXXXXXXXXXXXXXXXXX  ****OOooOOooooooOOooOO****  XXXXXXXXXXXXXXXX",
"XXXXXXXXXXXXXXXXXX  ****OOooOOooooooOOooOO****  XXXXXXXXXXXXXXXX",
"XXXXXXXXXXXXXXXX##--oo**  OOOOOO--OOOOOO  **oo--##XXXXXXXXXXXXXX",
"XXXXXXXXXXXXXXXX##--oo**  OOOOOO--OOOOOO  **oo--##XXXXXXXXXXXXXX",
"XXXXXXXXXXXXXXXX##----##  OO**,,oo,,**OO  ##----##XXXXXXXXXXXXXX",
"XXXXXXXXXXXXXXXX##----##  OO**,,oo,,**OO  ##----##XXXXXXXXXXXXXX",
"XXXXXXXXXXXXXXXXXX####  OOoo****oo****ooOO  ####XXXXXXXXXXXXXXXX",
"XXXXXXXXXXXXXXXXXX####  OOoo****oo****ooOO  ####XXXXXXXXXXXXXXXX",
"XXXXXXXXXXXXXXXXXXXXXX  OOOOooooooooooOOOO  XXXXXXXXXXXXXXXXXXXX",
"XXXXXXXXXXXXXXXXXXXXXX  OOOOooooooooooOOOO  XXXXXXXXXXXXXXXXXXXX",
"XXXXXXXXXXXXXXXXXXXXXX  ooOO****oo****OOoo  XXXXXXXXXXXXXXXXXXXX",
"XXXXXXXXXXXXXXXXXXXXXX  ooOO****oo****OOoo  XXXXXXXXXXXXXXXXXXXX",
"XXXXXXXXXXXXXXXXXXXXXXXX  oooo      oooo  XXXXXXXXXXXXXXXX......",
"XXXXXXXXXXXXXXXXXXXXXXXX  oooo      oooo  XXXXXXXXXXXXXXXX......",
"XXXXXXXX............XXXXXX    XXXXXX    XXXXXXXXXXXXXXXXXXXXXXXX",
"XXXXXXXX............XXXXXX    XXXXXX    XXXXXXXXXXXXXXXXXXXXXXXX",
"XXXXXXXXXXXXXXXXXXXXXXXXXXXXXXXXXXXXXXXXXXXXXXXXXXXXXXXXXXXXXXXX",
"XXXXXXXXXXXXXXXXXXXXXXXXXXXXXXXXXXXXXXXXXXXXXXXXXXXXXXXXXXXXXXXX",
"XXXXXXXXXXXXXXXXXXXXXXXXXXXXXXXXXXXXXXXXXXXXXXXXXXXXXXXXXXXXXXXX",
"XXXXXXXXXXXXXXXXXXXXXXXXXXXXXXXXXXXXXXXXXXXXXXXXXXXXXXXXXXXXXXXX",
"XXXXXXXXXXXXXXXXXXXXXXXXXXXX..............XXXXXXXXXXXXXXXXXXXXXX",
"XXXXXXXXXXXXXXXXXXXXXXXXXXXX..............XXXXXXXXXXXXXXXXXXXXXX",
"XXXXXXXXXXXXXXXXXXXXXXXXXXXXXXXXXXXXXXXXXXXXXXXXXXXXXXXXXXXXXXXX",
"XXXXXXXXXXXXXXXXXXXXXXXXXXXXXXXXXXXXXXXXXXXXXXXXXXXXXXXXXXXXXXXX"
};
