/* XPM */
static char *result[] = {
/* columns rows colors chars-per-pixel */
"64 64 4 1 ",
"  c black",
". c #313131",
"X c #3C3C3C",
"o c #F59014",
/* pixels */
"XXXXXXXXXXXXXXXXXXXXXXXXXXXXXXXXXXXXXXXXXXXXXXXXXXXXXXXXXXXXXXXX",
"XXXXXXXXXXXXXXXXXXXXXXXXXXXXXXXXXXXXXXXXXXXXXXXXXXXXXXXXXXXXXXXX",
"XXXXXXXXXXXXXXXXXXXXXXXXXX            XXXXXXXXXXXXXXXXXXXXXXXXXX",
"XXXXXXXXXXXXXXXXXXXXXXXXXX            XXXXXXXXXXXXXXXXXXXXXXXXXX",
"......XXXXXXXXXXXXXXXXXX                XXXXXXXXXXXXXXXXXXXXXXXX",
"......XXXXXXXXXXXXXXXXXX                XXXXXXXXXXXXXXXXXXXXXXXX",
"XXXXXXXXXXXXXXXXXXXXXX                    XXXXXXXXXX......XXXXXX",
"XXXXXXXXXXXXXXXXXXXXXX                    XXXXXXXXXX......XXXXXX",
"XXXXXXXXXXXXXXXXXXXX      XXXX    XXXX      XXXXXXXXXXXXXXXXXXXX",
"XXXXXXXXXXXXXXXXXXXX      XXXX    XXXX      XXXXXXXXXXXXXXXXXXXX",
"XXXXXXXXXXXXXXXXXX        XXXXXXXXXXXX        XXXXXXXXXXXXXXXXXX",
"XXXXXXXXXXXXXXXXXX        XXXXXXXXXXXX        XXXXXXXXXXXXXXXXXX",
"XXXXXXXXXXXXXXXXXX      XXXXXXXXXXXXXXXX      XXXXXXXXXXXXXXXXXX",
"XXXXXXXXXXXXXXXXXX      XXXXXXXXXXXXXXXX      XXXXXXXXXXXXXXXXXX",
"XXXXXXXXXX....XXXX      ......XXXXXXXXXX      XXXXXXXXXXXXXXXXXX",
"XXXXXXXXXX....XXXX      ......XXXXXXXXXX      XXXXXXXXXXXXXXXXXX",
"XXXXXXXXXXXXXXXXXX      XXXXXXXXXXXXXXXX      XXXXXXXXXXXXXXXXXX",
"XXXXXXXXXXXXXXXXXX      XXXXXXXXXXXXXXXX      XXXXXXXXXXXXXXXXXX",
"XXXXXXXXXXXXXXXXXX      XXXXXXXXXXXXXXXX      XXXXXXXXXXXXXXXXXX",
"XXXXXXXXXXXXXXXXXX      XXXXXXXXXXXXXXXX      XXXXXXXXXXXXXXXXXX",
"XXXXXXXXXXXXXXXXXX    XX  XXXXXX......        XXXXXXXXXXXXXXXXXX",
"XXXXXXXXXXXXXXXXXX    XX  XXXXXX......        XXXXXXXXXXXXXXXXXX",
"XXXXXXXXXXXXXXXXXXXX    XX  XXXXXXXX        XXXXXXXXXXXXXXXXXXXX",
"XXXXXXXXXXXXXXXXXXXX    XX  XXXXXXXX        XXXXXXXXXXXXXXXXXXXX",
"XXXXXXXXXXXXXXXXXXXXXX    XXXXXXXXXX      XXXXXXXX..........XXXX",
"XXXXXXXXXXXXXXXXXXXXXX    XXXXXXXXXX      XXXXXXXX..........XXXX",
"XXXXXXXXXXXXXXXXXXXXXXXX    XXXXXXXX    XXXXXXXXXXXXXXXXXXXXXXXX",
"XXXXXXXXXXXXXXXXXXXXXXXX    XXXXXXXX    XXXXXXXXXXXXXXXXXXXXXXXX",
"XX..........XXXXXXXXXXXXXX  XXXXXXXX  XXXXXXXXXXXXXXXXXXXXXXXXXX",
"XX..........XXXXXXXXXXXXXX  XXXXXXXX  XXXXXXXXXXXXXXXXXXXXXXXXXX",
"XXXXXXXXXXXXXXXXXXXXXXXXXXXXXXXXXXXXXXXXXXXXXXXXXXXXXXXXXXXXXXXX",
"XXXXXXXXXXXXXXXXXXXXXXXXXXXXXXXXXXXXXXXXXXXXXXXXXXXXXXXXXXXXXXXX",
"XXXXXXXXXXXXXXXXXXXXXXXXXXXXooooooooooooooooooooooooooooXXXXXXXX",
"XXXXXXXXXXXXXXXXXXXXXXXXXXXXooooooooooooooooooooooooooooXXXXXXXX",
"XXXXXXXXXX        XXXXXXXXXXoo  oooo  oooooooooo  ooooooXXXXXXXX",
"XXXXXXXXXX        XXXXXXXXXXoo  oooo  oooooooooo  ooooooXXXXXXXX",
"XXXXXXXXXX  XXXXXXXX  XX  XXoo  oooo  oooooooooo  ooooooXXXXXXXX",
"XXXXXXXXXX  XXXXXXXX  XX  XXoo  oooo  oooooooooo  ooooooXXXXXXXX",
"XXXXXXXXXX  XXXXXXXXXXXX  XXoo  oooo  oooooooooo  ooooooXXXXXXXX",
"XXXXXXXXXX  XXXXXXXXXXXX  XXoo  oooo  oooooooooo  ooooooXXXXXXXX",
"XXXXXXXXXX  XX    XX  XX    oo        oo  oo  oo      ooXXXXXXXX",
"XXXXXXXXXX  XX    XX  XX    oo        oo  oo  oo      ooXXXXXXXX",
"XXXXXXXXXX  XXXX  XX  XX  XXoo  oooo  oo  oo  oo  oo  ooXXXXXXXX",
"XXXXXXXXXX  XXXX  XX  XX  XXoo  oooo  oo  oo  oo  oo  ooXXXXXXXX",
"XXXXXXXXXX  XXXX  XX  XX  XXoo  oooo  oo  oo  oo  oo  ooXXXXXXXX",
"XXXXXXXXXX  XXXX  XX  XX  XXoo  oooo  oo  oo  oo  oo  ooXXXXXXXX",
"XXXXXXXXXX        XX  XX    oo  oooo  oo      oo      ooXXXXXXXX",
"XXXXXXXXXX        XX  XX    oo  oooo  oo      oo      ooXXXXXXXX",
"XXXXXXXXXXXXXXXXXXXXXXXXXXXXooooooooooooooooooooooooooooXXXXXXXX",
"XXXXXXXXXXXXXXXXXXXXXXXXXXXXooooooooooooooooooooooooooooXXXXXXXX",
"XXXXXXXXXXXXXXXXXXXXXXXXXXXXXXXXXXXXXXXXXXXXXXXXXXXXXXXXXXXXXXXX",
"XXXXXXXXXXXXXXXXXXXXXXXXXXXXXXXXXXXXXXXXXXXXXXXXXXXXXXXXXXXXXXXX",
"..XXXXXXXXXXXXXXXXXXXXXXXXXXXXXXXXXXXX........XXXXXXXXXXXXXXXX..",
"..XXXXXXXXXXXXXXXXXXXXXXXXXXXXXXXXXXXX........XXXXXXXXXXXXXXXX..",
"XXXXXXXXXXXXXXXXXXXXXXXXXXXXXXXXXXXXXXXXXXXXXXXXXXXXXXXXXXXXXXXX",
"XXXXXXXXXXXXXXXXXXXXXXXXXXXXXXXXXXXXXXXXXXXXXXXXXXXXXXXXXXXXXXXX",
"XXXXXXXXXXXXXXXXXXXXXXXXXXXXXXXXXXXXXXXXXXXXXXXXXXXXXXXXXXXXXXXX",
"XXXXXXXXXXXXXXXXXXXXXXXXXXXXXXXXXXXXXXXXXXXXXXXXXXXXXXXXXXXXXXXX",
"XXXXXXXXXX............XXXXXXXXXXXXXXXXXXXXXXXXXXXXXXXXXXXXXXXXXX",
"XXXXXXXXXX............XXXXXXXXXXXXXXXXXXXXXXXXXXXXXXXXXXXXXXXXXX",
"XXXXXXXXXXXXXXXXXXXXXXXXXXXXXXXXXXXXXXXXXXXXXXXXXXXXXX....XXXXXX",
"XXXXXXXXXXXXXXXXXXXXXXXXXXXXXXXXXXXXXXXXXXXXXXXXXXXXXX....XXXXXX",
"XXXXXXXXXXXXXXXXXXXXXXXXXXXXXXXXXXXXXXXXXXXXXXXXXXXXXXXXXXXXXXXX",
"XXXXXXXXXXXXXXXXXXXXXXXXXXXXXXXXXXXXXXXXXXXXXXXXXXXXXXXXXXXXXXXX"
};
