/* XPM */
static char *result[] = {
/* columns rows colors chars-per-pixel */
"64 64 4 1 ",
"  c #313131",
". c #3C3C3C",
"X c #5CB85C",
"o c white",
/* pixels */
"..............        ..........................................",
"..............        ..........................................",
"..XXXXXXXXXXXXXXXXXXXXXXXXXXXXXXXXXXXXXXXXXXXXXXXXXXXXXXXXXXXX..",
"..XXXXXXXXXXXXXXXXXXXXXXXXXXXXXXXXXXXXXXXXXXXXXXXXXXXXXXXXXXXX..",
"..XXXXXXXXXXXXXXXXXXXXXXXXXXXXXXXXXXXXXXXXXXXXXXXXXXXXXXXXXXXX..",
"..XXXXXXXXXXXXXXXXXXXXXXXXXXXXXXXXXXXXXXXXXXXXXXXXXXXXXXXXXXXX..",
"..XXXXXXXXXXXXXXXXXXXXXXXXXXXXXXXXXXXXXXXXXXXXXXXXXXXXXXXXXXXX..",
"..XXXXXXXXXXXXXXXXXXXXXXXXXXXXXXXXXXXXXXXXXXXXXXXXXXXXXXXXXXXX..",
"..XXXXXXXXXXXXXXooooXXooooXXooXXooXXooooXXooooXXooooXXooooXXXX..",
"..XXXXXXXXXXXXXXooooXXooooXXooXXooXXooooXXooooXXooooXXooooXXXX..",
"..XXXXXXXXXXXXooooXXXXooXXXXooXXooXXooXXXXooXXXXooXXXXooXXXXXX..",
"..XXXXXXXXXXXXooooXXXXooXXXXooXXooXXooXXXXooXXXXooXXXXooXXXXXX..",
"..XXXXooooXXooooXXXXXXooooXXooXXooXXooXXXXooooXXooooXXooooXXXX..",
"..XXXXooooXXooooXXXXXXooooXXooXXooXXooXXXXooooXXooooXXooooXXXX..",
"..XXXXXXooooooXXXXXXXXXXooXXooXXooXXooXXXXooXXXXXXooXXXXooXXXX..",
"..XXXXXXooooooXXXXXXXXXXooXXooXXooXXooXXXXooXXXXXXooXXXXooXXXX..",
"  XXXXXXXXooXXXXXXXXXXooooXXooooooXXooooXXooooXXooooXXooooXXXX..",
"  XXXXXXXXooXXXXXXXXXXooooXXooooooXXooooXXooooXXooooXXooooXXXX..",
"..XXXXXXXXXXXXXXXXXXXXXXXXXXXXXXXXXXXXXXXXXXXXXXXXXXXXXXXXXXXX..",
"..XXXXXXXXXXXXXXXXXXXXXXXXXXXXXXXXXXXXXXXXXXXXXXXXXXXXXXXXXXXX..",
"..XXXXXXXXXXXXXXXXXXXXXXXXXXXXXXXXXXXXXXXXXXXXXXXXXXXXXXXXXXXX..",
"..XXXXXXXXXXXXXXXXXXXXXXXXXXXXXXXXXXXXXXXXXXXXXXXXXXXXXXXXXXXX..",
"..XXXXXXXXXXooXXXXooooXXXXooooooooXXXXXXXXXXXXXXXXXXXXXXXXXXXX..",
"..XXXXXXXXXXooXXXXooooXXXXooooooooXXXXXXXXXXXXXXXXXXXXXXXXXXXX..",
"..XXXXXXXXooooXXooXXXXooXXooXXXXXXXXXXXXXXXXXXXXXXXXXXXXXXXXXX..",
"..XXXXXXXXooooXXooXXXXooXXooXXXXXXXXXXXXXXXXXXXXXXXXXXXXXXXXXX..",
"..XXXXXXooXXooXXXXXXXXooXXooXXXXXXXXXXXXXXXXXXXXXXXXXXXXXXXXXX..",
"..XXXXXXooXXooXXXXXXXXooXXooXXXXXXXXXXXXXXXXXXXXXXXXXXXXXXXXXX..",
"..XXXXXXXXXXooXXXXXXXXooXXooXXXXXXXXXXXXXXXXXXXXXXXXXXXXXXXXXX..",
"..XXXXXXXXXXooXXXXXXXXooXXooXXXXXXXXXXXXXXXXXXXXXXXXXXXXXXXXXX..",
"..XXXXXXXXXXooXXXXXXooXXXXooooooXXXXXXXXooXXXXXXXXXXXXXXXXXXXX..",
"..XXXXXXXXXXooXXXXXXooXXXXooooooXXXXXXXXooXXXXXXXXXXXXXXXXXXXX..",
"..XXXXXXXXXXooXXXXooXXXXXXXXXXXXooXXXXooXXXXXXXXXXXXXXXXXXXXXX..",
"..XXXXXXXXXXooXXXXooXXXXXXXXXXXXooXXXXooXXXXXXXXXXXXXXXXXXXXXX..",
"..XXXXXXXXXXooXXooXXXXXXXXXXXXXXooXXXXooXXXXooXXooooXXooooXXXX..",
"..XXXXXXXXXXooXXooXXXXXXXXXXXXXXooXXXXooXXXXooXXooooXXooooXXXX..",
"..XXXXXXXXXXooXXooXXXXXXXXXXXXXXooXXXXooXXooooXXooooXXooooXXXX..",
"..XXXXXXXXXXooXXooXXXXXXXXXXXXXXooXXXXooXXooooXXooooXXooooXXXX..",
"..XXXXXXXXXXooXXooXXXXXXXXXXXXXXooXXXXooXXXXooXXooooXXooooXXXX  ",
"..XXXXXXXXXXooXXooXXXXXXXXXXXXXXooXXXXooXXXXooXXooooXXooooXXXX  ",
"..XXXXXXXXXXooXXooooooooXXooooooXXXXooXXXXXXooXXooooXXooooXXXX..",
"..XXXXXXXXXXooXXooooooooXXooooooXXXXooXXXXXXooXXooooXXooooXXXX..",
"..XXXXXXXXXXXXXXXXXXXXXXXXXXXXXXXXXXXXXXXXXXXXXXXXXXXXXXXXXXXX..",
"..XXXXXXXXXXXXXXXXXXXXXXXXXXXXXXXXXXXXXXXXXXXXXXXXXXXXXXXXXXXX..",
"..XXXXXXXXXXXXXXXXXXXXXXXXXXXXXXXXXXXXXXXXXXXXXXXXXXXXXXXXXXXX..",
"..XXXXXXXXXXXXXXXXXXXXXXXXXXXXXXXXXXXXXXXXXXXXXXXXXXXXXXXXXXXX..",
"..XXXXXXXXXXXXXXXXXXXXXXXXXXXXXXXXXXXXXXXXXXXXXXXXXXXXXXXXXXXX..",
"..XXXXXXXXXXXXXXXXXXXXXXXXXXXXXXXXXXXXXXXXXXXXXXXXXXXXXXXXXXXX..",
"..XXXXXXXXXXXXXXXXXXXXXXXXXXXXXXXXXXXXXXXXXXXXXXXXXXXXXXXXXXXX..",
"..XXXXXXXXXXXXXXXXXXXXXXXXXXXXXXXXXXXXXXXXXXXXXXXXXXXXXXXXXXXX..",
"................................................................",
"................................................................",
"........        ............................................    ",
"........        ............................................    ",
"............................................    ................",
"............................................    ................",
"................................................................",
"................................................................",
"........................            ............................",
"........................            ............................",
"      ..........................................................",
"      ..........................................................",
"....................................................      ......",
"....................................................      ......"
};
